<svg width="280" height="296" viewBox="0 0 280 296" fill="none" xmlns="http://www.w3.org/2000/svg">
<g clip-path="url(#clip0_1_179)">
<path d="M241.333 287.72H7.74655C3.43988 287.72 -0.0400391 284.24 -0.0400391 279.947C-0.0400391 275.64 3.43988 272.16 7.74655 272.16H241.333C245.627 272.16 249.12 275.64 249.12 279.947C249.12 284.24 245.627 287.72 241.333 287.72Z" fill="#413C58"/>
<path d="M38.8931 163.147V186.507C38.8931 233.733 77.3064 272.16 124.533 272.16C171.76 272.16 210.186 233.733 210.186 186.507V163.147H38.8931ZM124.533 287.72C68.7198 287.72 23.3198 242.32 23.3198 186.507V155.36C23.3198 151.066 26.7997 147.573 31.1064 147.573H217.973C222.28 147.573 225.76 151.066 225.76 155.36V186.507C225.76 242.32 180.346 287.72 124.533 287.72" fill="#413C58"/>
<path d="M134.906 255.72C131.173 255.72 127.88 253.026 127.24 249.226C126.52 244.986 129.373 240.96 133.627 240.253C150.28 237.44 164.933 226.8 172.84 211.76C174.84 207.96 179.546 206.48 183.346 208.493C187.146 210.493 188.613 215.2 186.613 219C176.466 238.32 157.613 252 136.213 255.613C135.773 255.68 135.333 255.72 134.906 255.72" fill="#413C58"/>
<path d="M210.187 233.227C205.893 233.227 202.4 229.747 202.4 225.44C202.4 221.147 205.88 217.653 210.173 217.653C219.147 217.627 244.467 215.053 253.907 203.507C257.28 199.387 258.307 194.32 257.053 188.04C253.867 172.147 219.76 177.84 219.413 177.907C215.2 178.72 211.107 175.92 210.32 171.693C209.52 167.48 212.307 163.4 216.52 162.6C234.907 159.16 267.32 159.96 272.32 184.973C274.493 195.827 272.293 205.653 265.947 213.4C250.147 232.667 214.227 233.227 210.187 233.227Z" fill="#413C58"/>
<path d="M77.8133 116.427C75.8267 116.427 73.8401 115.667 72.3201 114.147C69.2668 111.107 69.2668 106.187 72.3201 103.133C74.0934 101.32 89.4801 84.5998 72.3201 67.4265C49.4801 44.5999 62.3334 19.6934 72.3201 9.70673C75.3601 6.66673 80.2801 6.66673 83.3201 9.70673C86.3601 12.7334 86.36 17.6532 83.3466 20.6932C81.48 22.5999 66.1868 39.2932 83.3201 56.4265C106.16 79.2532 93.3068 104.16 83.3201 114.147C81.8001 115.667 79.8133 116.427 77.8133 116.427" fill="#413C58"/>
<path d="M124.533 116.427C122.547 116.427 120.547 115.667 119.027 114.147C115.987 111.107 115.987 106.187 119.027 103.133C120.813 101.32 136.2 84.5998 119.027 67.4265C96.2 44.5999 109.053 19.6934 119.027 9.70673C122.067 6.66673 127 6.66673 130.04 9.70673C133.08 12.7334 133.08 17.6532 130.053 20.6932C128.2 22.5999 112.907 39.2932 130.04 56.4265C152.88 79.2532 140.027 104.16 130.04 114.147C128.52 115.667 126.533 116.427 124.533 116.427" fill="#413C58"/>
<path d="M171.253 116.427C169.267 116.427 167.267 115.667 165.747 114.147C162.707 111.107 162.707 106.187 165.747 103.133C167.533 101.32 182.92 84.5998 165.747 67.4265C142.92 44.5999 155.76 19.6934 165.747 9.70673C168.787 6.66673 173.72 6.66673 176.76 9.70673C179.787 12.7334 179.8 17.6532 176.773 20.6932C174.92 22.5999 159.627 39.2932 176.76 56.4265C199.587 79.2532 186.747 104.16 176.76 114.147C175.24 115.667 173.24 116.427 171.253 116.427" fill="#413C58"/>
</g>
<defs>
<clipPath id="clip0_1_179">
<rect width="280" height="296" fill="white"/>
</clipPath>
</defs>
</svg>
