<?xml version="1.0" encoding="UTF-8"?>
<!-- Generated by Pixelmator Pro 2.4.7 -->
<svg width="238" height="114" viewBox="0 0 238 114" xmlns="http://www.w3.org/2000/svg" xmlns:xlink="http://www.w3.org/1999/xlink">
    <path id="directive-io" fill="#d1603d" fill-rule="evenodd" stroke="none" d="M 51.919922 113.59375 C 47.41993 113.59375 43.882576 112.235573 41.308594 109.517578 C 38.734612 106.799591 37.447266 103.010376 37.447266 98.150391 C 37.447266 94.694405 38.131996 91.768997 39.5 89.375 C 40.868004 86.981003 42.713173 85.189941 45.035156 84.001953 C 47.357132 82.813965 49.903793 82.220703 52.675781 82.220703 C 57.211769 82.220703 60.767815 83.57888 63.341797 86.296875 C 65.91581 89.014877 67.201172 92.804085 67.201172 97.664063 C 67.201172 101.22805 66.518394 104.198219 65.150391 106.574219 C 63.782379 108.950211 61.946564 110.713234 59.642578 111.865234 C 57.3386 113.017227 54.763908 113.59375 51.919922 113.59375 Z M 6.884766 113.431641 C 5.66077 113.431641 4.58987 113.000717 3.671875 112.136719 C 2.753876 111.27272 2.294922 110.209213 2.294922 108.949219 C 2.294922 107.509224 2.815376 106.330109 3.859375 105.412109 C 4.903374 104.49411 6.20005 104.035156 7.748047 104.035156 C 9.152046 104.035156 10.286392 104.486725 11.150391 105.386719 C 12.014385 106.286713 12.445313 107.348274 12.445313 108.572266 C 12.445313 110.084259 11.941593 111.27272 10.933594 112.136719 C 9.925598 113.000717 8.576759 113.431641 6.884766 113.431641 Z M 18.007813 113 L 18.007813 109.435547 L 21.355469 108.949219 L 21.355469 88.646484 L 17.738281 87.619141 L 17.738281 83.570313 L 28.537109 82.273438 L 28.646484 82.273438 L 30.320313 83.408203 L 30.320313 108.949219 L 33.560547 109.435547 L 33.560547 113 L 18.007813 113 Z M 52.460938 109.814453 C 54.18895 109.814453 55.474312 108.887192 56.320313 107.033203 C 57.166321 105.179207 57.589844 102.272491 57.589844 98.3125 C 57.589844 94.10051 57.185005 90.994087 56.375 88.996094 C 55.564995 86.9981 54.20681 86 52.298828 86 C 48.770844 86 47.005859 89.833977 47.005859 97.501953 C 47.005859 101.677948 47.438728 104.773071 48.302734 106.789063 C 49.16674 108.805054 50.552956 109.814453 52.460938 109.814453 Z M 24.650391 78.332031 C 23.246399 78.332031 22.112049 77.917854 21.248047 77.089844 C 20.384041 76.261841 19.951172 75.200302 19.951172 73.904297 C 19.951172 72.392288 20.428825 71.149734 21.382813 70.177734 C 22.336803 69.205727 23.624146 68.720703 25.244141 68.720703 C 26.864128 68.720703 28.106697 69.134888 28.970703 69.962891 C 29.834709 70.790894 30.265625 71.852425 30.265625 73.148438 C 30.265625 74.696442 29.780586 75.946388 28.808594 76.900391 C 27.836609 77.854393 26.467117 78.332031 24.703125 78.332031 L 24.650391 78.332031 Z M 24.757813 45.648438 C 23.497805 45.648438 22.589256 45.441345 22.03125 45.027344 C 21.473248 44.613342 21.193359 43.81105 21.193359 42.623047 L 21.193359 41.273438 C 20.329353 42.53344 19.088758 43.568901 17.46875 44.378906 C 15.848745 45.188911 14.173319 45.59375 12.445313 45.59375 C 8.9893 45.59375 6.181493 44.351204 4.021484 41.867188 C 1.861475 39.383179 0.78125 35.657471 0.78125 30.689453 C 0.78125 27.701431 1.402524 24.957092 2.644531 22.455078 C 3.886534 19.953064 5.722334 17.954941 8.152344 16.460938 C 10.582353 14.966934 13.526409 14.220703 16.982422 14.220703 C 18.026426 14.220703 19.106653 14.345642 20.222656 14.597656 L 20.222656 6.011719 L 15.037109 5.255859 L 15.037109 1.800781 L 26.972656 0.720703 L 27.242188 0.720703 L 28.861328 2.015625 L 28.861328 41.382813 L 31.669922 41.382813 L 31.669922 44.837891 C 28.897913 45.377899 26.593817 45.648438 24.757813 45.648438 Z M 94.310547 45.59375 C 89.378555 45.59375 85.723671 44.198219 83.347656 41.408203 C 80.971642 38.618195 79.783203 34.812271 79.783203 29.988281 C 79.783203 26.712265 80.395134 23.885788 81.619141 21.509766 C 82.843147 19.133759 84.563332 17.324051 86.777344 16.082031 C 88.991356 14.840027 91.592056 14.220703 94.580078 14.220703 C 98.360092 14.220703 101.248093 15.174026 103.246094 17.082031 C 105.24411 18.990036 106.279556 21.689621 106.351563 25.181641 C 106.351563 27.485641 106.18924 29.340134 105.865234 30.744141 L 88.964844 30.744141 C 89.144836 33.804153 89.891068 36.134323 91.205078 37.736328 C 92.519089 39.338333 94.364212 40.140625 96.740234 40.140625 C 98.072235 40.140625 99.467773 39.914848 100.925781 39.464844 C 102.383789 39.014847 103.562881 38.501785 104.462891 37.925781 L 105.974609 41.220703 C 105.038605 42.264709 103.445313 43.253448 101.195313 44.189453 C 98.945297 45.125458 96.650558 45.59375 94.310547 45.59375 Z M 124.873047 45.59375 C 120.157066 45.59375 116.629074 44.198219 114.289063 41.408203 C 111.949051 38.618195 110.779297 34.883118 110.779297 30.203125 C 110.779297 26.999115 111.428604 24.191315 112.724609 21.779297 C 114.020615 19.367279 115.837723 17.505417 118.177734 16.191406 C 120.517746 14.877411 123.217331 14.220703 126.277344 14.220703 C 127.789352 14.220703 129.095367 14.31958 130.193359 14.517578 C 131.291367 14.715576 132.416367 14.993515 133.568359 15.353516 C 134.612366 15.64151 135.25972 15.803848 135.511719 15.839844 L 135.134766 25.613281 L 129.679688 25.613281 L 128.275391 19.404297 C 128.167389 18.936295 127.870773 18.602295 127.384766 18.404297 C 126.898773 18.206299 126.314865 18.107422 125.630859 18.107422 C 123.938843 18.107422 122.614166 18.935791 121.660156 20.591797 C 120.706161 22.247803 120.230469 25.001534 120.230469 28.853516 C 120.230469 32.525528 120.833054 35.342674 122.039063 37.304688 C 123.245071 39.266701 124.873779 40.248047 126.925781 40.248047 C 129.589798 40.248047 132.037521 39.563324 134.269531 38.195313 L 135.728516 41.382813 C 134.864517 42.354813 133.442902 43.29879 131.462891 44.216797 C 129.48288 45.134796 127.285065 45.59375 124.873047 45.59375 Z M 225.746094 45.59375 C 220.814056 45.59375 217.15921 44.198219 214.783203 41.408203 C 212.407196 38.618195 211.220703 34.812241 211.220703 29.988281 C 211.220703 26.712265 211.832642 23.885788 213.056641 21.509766 C 214.28064 19.133759 215.998871 17.324051 218.212891 16.082031 C 220.42688 14.840027 223.027618 14.220703 226.015625 14.220703 C 229.795654 14.220703 232.685577 15.174026 234.683594 17.082031 C 236.68158 18.990036 237.715118 21.689621 237.787109 25.181641 C 237.787109 27.485641 237.62674 29.340134 237.302734 30.744141 L 220.400391 30.744141 C 220.580383 33.804153 221.32663 36.134323 222.640625 37.736328 C 223.954651 39.338333 225.799774 40.140625 228.175781 40.140625 C 229.507782 40.140625 230.90332 39.914848 232.361328 39.464844 C 233.819336 39.014847 234.998413 38.501785 235.898438 37.925781 L 237.410156 41.220703 C 236.474152 42.264709 234.880859 43.253448 232.630859 44.189453 C 230.380829 45.125458 228.08609 45.59375 225.746094 45.59375 Z M 148.742188 45.486328 C 146.366165 45.486328 144.610565 44.937851 143.476563 43.839844 C 142.342545 42.741844 141.775391 41.040337 141.775391 38.736328 L 141.775391 19.511719 L 138.482422 19.511719 L 138.482422 16.380859 L 139.5625 15.947266 C 140.426514 15.659271 141.182068 15.353302 141.830078 15.029297 C 142.550079 14.345291 143.126587 13.446075 143.558594 12.330078 C 144.098602 11.034073 144.691849 9.216965 145.339844 6.876953 L 150.361328 6.876953 L 150.685547 14.976563 L 158.408203 14.976563 L 158.408203 19.511719 L 150.794922 19.511719 L 150.794922 33.822266 C 150.794922 35.802277 150.847076 37.188461 150.955078 37.980469 C 151.06308 38.772469 151.270172 39.28553 151.576172 39.519531 C 151.882172 39.753532 152.449341 39.869141 153.277344 39.869141 C 154.969345 39.869141 156.571976 39.581863 158.083984 39.005859 L 159.21875 42.408203 C 158.210739 43.236214 156.716339 43.956352 154.736328 44.568359 C 152.756332 45.180359 150.758194 45.486328 148.742188 45.486328 Z M 190.916016 45.431641 L 180.224609 19.080078 L 178.117188 18.431641 L 178.117188 14.976563 L 193.453125 14.976563 L 193.453125 18.431641 L 190.052734 19.080078 L 194.587891 33.335938 L 195.992188 38.25 L 197.126953 33.390625 L 201.607422 19.080078 L 198.314453 18.431641 L 198.314453 14.976563 L 210.787109 14.976563 L 210.787109 18.431641 L 207.980469 19.080078 L 198.152344 45.431641 L 190.916016 45.431641 Z M 35.179688 45 L 35.179688 41.435547 L 38.527344 40.949219 L 38.527344 20.646484 L 34.910156 19.619141 L 34.910156 15.570313 L 45.710938 14.273438 L 45.818359 14.273438 L 47.492188 15.408203 L 47.492188 40.949219 L 50.732422 41.435547 L 50.732422 45 L 35.179688 45 Z M 54.511719 45 L 54.511719 41.435547 L 57.806641 40.949219 L 57.806641 20.646484 L 54.619141 19.673828 L 54.619141 15.462891 L 63.583984 14.273438 L 63.746094 14.273438 L 65.257813 15.408203 L 65.257813 16.703125 L 65.095703 21.185547 L 65.257813 21.185547 C 65.509811 20.357544 66.086327 19.394882 66.986328 18.296875 C 67.88633 17.198868 69.028053 16.24556 70.414063 15.435547 C 71.800072 14.625549 73.303818 14.220703 74.923828 14.220703 C 75.859833 14.220703 76.579979 14.345642 77.083984 14.597656 L 77.083984 23.994141 C 76.50798 23.562134 75.886703 23.220749 75.220703 22.96875 C 74.554703 22.716751 73.700256 22.589844 72.65625 22.589844 C 71.360245 22.589844 70.190483 22.76152 69.146484 23.103516 C 68.102478 23.445526 67.274109 23.831665 66.662109 24.263672 L 66.662109 40.949219 L 72.601563 41.490234 L 72.601563 45 L 54.511719 45 Z M 161.59375 45 L 161.59375 41.435547 L 164.941406 40.949219 L 164.941406 20.646484 L 161.324219 19.619141 L 161.324219 15.570313 L 172.123047 14.273438 L 172.232422 14.273438 L 173.90625 15.408203 L 173.90625 40.949219 L 177.146484 41.435547 L 177.146484 45 L 161.59375 45 Z M 15.685547 40.734375 C 16.693548 40.734375 17.585369 40.527283 18.359375 40.113281 C 19.133377 39.69928 19.754654 39.20491 20.222656 38.628906 L 20.222656 19.080078 C 19.970654 18.756073 19.511703 18.485535 18.845703 18.269531 C 18.179699 18.053528 17.468891 17.945313 16.712891 17.945313 C 14.696882 17.945313 13.094256 18.909927 11.90625 20.835938 C 10.718247 22.761948 10.123047 25.901802 10.123047 30.257813 C 10.123047 33.821838 10.628713 36.459915 11.636719 38.169922 C 12.644721 39.879929 13.99354 40.734375 15.685547 40.734375 Z M 88.910156 27.179688 L 97.765625 27.179688 L 97.820313 24.912109 C 97.820313 22.644089 97.514359 20.916519 96.902344 19.728516 C 96.290344 18.540512 95.245529 17.945313 93.769531 17.945313 C 92.257523 17.945313 91.087769 18.603958 90.259766 19.917969 C 89.431763 21.231964 88.982147 23.651672 88.910156 27.179688 Z M 220.345703 27.179688 L 229.201172 27.179688 L 229.255859 24.912109 C 229.255859 22.644089 228.94989 20.916519 228.337891 19.728516 C 227.725861 18.540512 226.681091 17.945313 225.205078 17.945313 C 223.693085 17.945313 222.523315 18.603958 221.695313 19.917969 C 220.867279 21.231964 220.417694 23.651672 220.345703 27.179688 Z M 41.822266 10.332031 C 40.418259 10.332031 39.283928 9.917847 38.419922 9.089844 C 37.555916 8.261841 37.123047 7.200302 37.123047 5.904297 C 37.123047 4.392288 37.600685 3.14975 38.554688 2.177734 C 39.50869 1.205734 40.796005 0.720703 42.416016 0.720703 C 44.036026 0.720703 45.278572 1.134888 46.142578 1.962891 C 47.006584 2.790894 47.4375 3.852432 47.4375 5.148438 C 47.4375 6.696457 46.952469 7.946381 45.980469 8.900391 C 45.008461 9.854401 43.640961 10.332031 41.876953 10.332031 L 41.822266 10.332031 Z M 168.236328 10.332031 C 166.832321 10.332031 165.697983 9.917847 164.833984 9.089844 C 163.969986 8.261841 163.537109 7.200302 163.537109 5.904297 C 163.537109 4.392288 164.014755 3.14975 164.96875 2.177734 C 165.92276 1.205734 167.210068 0.720703 168.830078 0.720703 C 170.450089 0.720703 171.692642 1.134888 172.556641 1.962891 C 173.420639 2.790894 173.851563 3.852432 173.851563 5.148438 C 173.851563 6.696457 173.366531 7.946381 172.394531 8.900391 C 171.422531 9.854401 170.053085 10.332031 168.289063 10.332031 L 168.236328 10.332031 Z"/>
</svg>
