<svg width="61" height="67" viewBox="0 0 61 67" fill="none" xmlns="http://www.w3.org/2000/svg">
<path d="M36.3613 55.1973C35.8507 55.1973 35.3627 54.9027 35.1421 54.4053C34.8432 53.732 35.1469 52.944 35.82 52.6453C37.292 51.9933 38.6027 51.0613 39.7173 49.8747L40.2107 49.352L40.9187 49.4747C41.656 49.604 42.3307 49.6667 42.984 49.6667C49.6 49.6667 54.984 44.284 54.984 37.6667C54.984 35.9507 54.6173 34.2787 53.8947 32.696L53.572 31.9893L54.028 31.36C55.5253 29.2947 56.3173 26.8653 56.3173 24.3333C56.3173 17.7173 50.9333 12.3333 44.3173 12.3333L43.4613 12.3707L42.6213 11.7507L42.3907 11.284C40.776 6.32934 36.192 3 30.9833 3C25.7745 3 21.1907 6.32934 19.5765 11.284L19.436 11.7173L18.5063 12.3707L17.65 12.3333C11.0339 12.3333 5.65 17.7173 5.65 24.3333C5.65 26.8653 6.44174 29.2947 7.93854 31.36L8.3948 31.9893L8.07187 32.696C7.35 34.2787 6.98334 35.9507 6.98334 37.6667C6.98334 44.284 12.3672 49.6667 18.9833 49.6667C19.636 49.6667 20.3109 49.604 21.0484 49.4747L21.7568 49.352L22.2489 49.876C23.3631 51.06 24.6745 51.992 26.1469 52.6453C26.8203 52.944 27.1235 53.732 26.8245 54.4053C26.526 55.08 25.7375 55.3827 25.0651 55.084C23.4823 54.3813 22.0527 53.416 20.8063 52.2093C20.1765 52.2933 19.5755 52.3333 18.9833 52.3333C10.8964 52.3333 4.31667 45.7533 4.31667 37.6667C4.31667 35.8187 4.66254 34.016 5.34534 32.2933C3.79787 29.912 2.98334 27.176 2.98334 24.3333C2.98334 16.356 9.3864 9.84534 17.3229 9.67068C19.5088 4.05201 24.8969 0.333338 30.9833 0.333338C37.0707 0.333338 42.4587 4.05201 44.644 9.67068C52.58 9.84534 58.984 16.356 58.984 24.3333C58.984 27.176 58.1693 29.912 56.6213 32.2933C57.304 34.016 57.6507 35.8187 57.6507 37.6667C57.6507 45.7533 51.0707 52.3333 42.984 52.3333C42.392 52.3333 41.7907 52.2933 41.16 52.2093C39.9133 53.4173 38.484 54.3813 36.9027 55.084C36.7267 55.1613 36.5427 55.1973 36.3613 55.1973" fill="#413C58"/>
<path d="M9.7292 28.224C9.68067 28.224 9.63227 28.2227 9.58441 28.2173C8.85214 28.1387 8.32294 27.48 8.40161 26.7493C9.19268 19.3987 15.2917 13.8307 22.6568 13.6693C24.2661 9.54801 27.6745 6.34001 31.9156 5.00535C32.6208 4.78668 33.3677 5.176 33.588 5.87734C33.8088 6.58 33.4183 7.32934 32.7156 7.55068C29.0276 8.71068 26.1099 11.6013 24.9099 15.284L24.7693 15.7173L23.8396 16.3707L22.9833 16.3333C16.838 16.3333 11.7093 20.9333 11.0527 27.0333C10.9792 27.7173 10.4011 28.224 9.7292 28.224" fill="#413C58"/>
<path d="M30.9833 65.6667C30.2473 65.6667 29.65 65.0707 29.65 64.3333V45.1147L38.0413 36.724C38.5613 36.2027 39.4053 36.2027 39.9267 36.724C40.4467 37.2453 40.4467 38.088 39.9267 38.6093L32.3167 46.2187V64.3333C32.3167 65.0707 31.7197 65.6667 30.9833 65.6667Z" fill="#413C58"/>
<path d="M30.9833 47C30.6421 47 30.3011 46.8693 30.0407 46.6093L22.0407 38.6093C21.5197 38.088 21.5197 37.2454 22.0407 36.724C22.5615 36.2027 23.4052 36.2027 23.926 36.724L31.926 44.724C32.4469 45.2454 32.4469 46.088 31.926 46.6093C31.6656 46.8693 31.3245 47 30.9833 47" fill="#413C58"/>
<path d="M42.9973 65.6667H42.984C42.2467 65.6667 41.6507 65.0707 41.6507 64.3333C41.6507 63.596 42.2467 63 42.984 63C43.72 63 44.324 63.596 44.324 64.3333C44.324 65.0707 43.7347 65.6667 42.9973 65.6667Z" fill="#413C58"/>
<path d="M37.592 65.6667H18.9833C18.2473 65.6667 17.65 65.0707 17.65 64.3333C17.65 63.596 18.2473 63 18.9833 63H37.592C38.328 63 38.9253 63.596 38.9253 64.3333C38.9253 65.0707 38.328 65.6667 37.592 65.6667Z" fill="#413C58"/>
</svg>
